<svg>
    <path className="stroke-blue-500 stroke-[10] translate-y-[10%] translate-x-[20px] scale-x-[.9] path" d="M 60 300 C -1.32 177.3 8.22 93.84 60 0 Q 78.6 -26.94 94.8 0.6 C 135.562 75.982 135.932 141.51 181.2 224.22 C 205.533 254.057 221.083 254.797 244.62 228.6 C 299.199 140.4 306.603 83.016 361.08 4.32 Q 386.28 -22.2 392.7 7.62 C 422.52 126.12 415.02 219 361.08 302.46"/>
    <path className="stroke-blue-500 stroke-[10] translate-y-[10%] translate-x-[415px] scale-y-[.92] path" d='M 40 30 C 40 -10 0 -10 0 30 V 270 C 0 310 40 310 40 270 L 40 30'/>
    <path className="stroke-blue-500 stroke-[10] translate-y-[10%] translate-x-[445px] scale-y-[1.2] path" d="M 60 240 C 21.12 132.6 28.5 71.88 60 0 Q 69.289 -18.867 76.524 -0.315 C 116.22 121.56 183.3 100.38 272.636 223.46 Q 281.241 235.101 287.986 222.768 C 304.613 188.032 297.96 91.92 263.1 -0.54"/>
    <path className="stroke-blue-500 stroke-[10] translate-y-[10%] translate-x-[765px] scale-y-[1.3] path" d="M 0 225 Q 0 75 56.45 24.5 Q 103.4 -19.9 150.35 21.35 Q 202.4 70.85 206.85 227.55 M -9.5 134.9 L 225.85 98.1"/>
    <path className="stroke-blue-500 stroke-[10] translate-y-[10%] translate-x-[905px] path" d='M 133.68 300.06 L 131.4 12.24 M 281.4 21.42 L 7.32 4.68'/>
    <path className="stroke-blue-500 stroke-[10] translate-y-[10%] translate-x-[1100px] path" d="M 71.049 50.5632 Q 177.6665 -65.7276 286.4054 46.2357 Q 390.8592 147.4651 284.7932 259.98 Q 178.7272 363.8398 76.9887 258.8769 Q -29.6289 151.2411 71.6005 50.0117 Z"/>
</svg>