<svg width='100%' height='100%' viewBox="0 0 1000 1000">
    <path className="stroke-blue-500 stroke-[7] [stroke-linecap:round] scale-[5] translate-x-[15%] translate-y-[10%] path" d="M 1.23 48.43 C -1.19 33.63 0.11 9.16 4.66 3.52 q 2.87 -2.87 5.1 0.35 C 13.4 10.85 10.53 24.92 18.01 38.79 Q 20.16 42.18 22.25 38.87 C 30.72 25.38 26.62 11.63 32.26 3.04 Q 34.93 0.16 37.2 3.22 C 40.47 8.76 40.96 32.99 37.4 48.03 M 53.05 2.34 C 56.06 7.89 50.51 14.68 53.13 22 C 55.13 30.09 50.97 39.34 53.21 47.75 M 66.28 46.66 C 62.18 35.34 62.07 17.8 66.51 3.38 C 74.39 22.13 85.59 27.79 92.47 46.1 C 97.69 35.23 96.03 17.14 90.81 3.27 M 113.56 43.77 C 113.12 25.46 121.33 19.58 127.32 4.15 C 130.87 20.02 139.08 27.13 141.3 43.66 M 108.01 27.57 C 116.33 31.23 133.76 22.24 147.52 22.35 M 172.34 10.61 C 165.35 24.93 177.45 37.24 172.12 47.79 M 154.92 12.94 C 161.69 15.72 184.33 5.06 196.09 6.84 M 203.877 11.008 C 211.379 3.557 224.61 1.28 237.82 9.16 C 248.03 17.26 244.367 31.723 241.26 39.56 C 234.93 45.45 213.037 46.221 204.75 40.34 C 200.87 35.79 196.985 20.359 203.921 10.747 Z"/>
    <path className="stroke-blue-500 stroke-[7] [stroke-linecap:round] scale-[5] translate-x-[15%] translate-y-[35%] path" d="M 3.2 47.2 C 13.06 35.87 9.04 16.68 22.75 3.34 C 37.92 14.3 38.46 35.87 48.7 45.19 M 4.29 29.11 C 13.25 33.31 28.6 20.15 44.31 21.98 M 57.53 5.71 C 50.26 15.11 51.4 27.78 56.19 39.7 C 69.35 49.72 82.02 46.73 91.46 40.25 M 57.53 5.71 C 68.35 -0.27 81.31 0.44 91.14 5.71 C 96.27 15.96 95.41 28.35 91.57 40.46 M 87.86 37.33 C 88.86 41.6 95.7 40.03 97.83 45.87 M 109.23 6.85 C 101.25 16.39 101.54 31.06 110.37 43.17 Q 124.47 50.86 135.58 43.31 C 142.13 35.62 145.4 19.81 135.43 6.71 M 155.8 44.31 C 159.08 29.92 170.76 20.81 174.17 4.57 C 177.02 20.95 189.98 27.07 194.83 42.03 M 158.65 20.38 C 169.33 29.21 183.57 23.65 194.97 31.34"/>
  </svg>